Land_normalized_precision_landing07_filtered_grf
version=1
nRows=28
nColumns=37
inDegrees=yes
endheader
time		1_ground_force_vx		1_ground_force_vy		1_ground_force_vz		1_ground_force_px		1_ground_force_py		1_ground_force_pz		1_ground_torque_x		1_ground_torque_y		1_ground_torque_z		2_ground_force_vx		2_ground_force_vy		2_ground_force_vz		2_ground_force_px		2_ground_force_py		2_ground_force_pz		2_ground_torque_x		2_ground_torque_y		2_ground_torque_z		3_ground_force_vx		3_ground_force_vy		3_ground_force_vz		3_ground_force_px		3_ground_force_py		3_ground_force_pz		3_ground_torque_x		3_ground_torque_y		3_ground_torque_z		4_ground_force_vx		4_ground_force_vy		4_ground_force_vz		4_ground_force_px		4_ground_force_py		4_ground_force_pz		4_ground_torque_x		4_ground_torque_y		4_ground_torque_z		
1.082000		17.611793		920.745185		236.678611		0.057180		0.000000		0.176035		0.379693		19.850343		5.102554		21.035193		654.996486		95.221930		-0.146756		0.000000		0.177931		0.616760		19.204744		2.791943		0.609656		-0.160149		-0.031657		0.381178		1.275808		1.884353		0.009162		0.019833		0.030378		-0.765292		0.008106		0.162330		-0.351468		1.268287		1.872161		-0.002588		-0.014630		-0.007229		
1.084652		17.044501		933.254135		238.180641		0.057653		0.000000		0.176110		0.363172		19.884967		5.074949		22.995687		655.275795		96.928457		-0.147047		0.000000		0.177899		0.697115		19.864252		2.938335		0.688886		-0.159159		0.076417		0.381163		1.275807		1.884368		0.009906		0.016563		0.029170		-0.768849		0.044822		0.161330		-0.351485		1.268285		1.872206		-0.003739		-0.012922		-0.007508		
1.087303		16.120975		945.444614		239.870958		0.058097		0.000000		0.176112		0.338936		19.877358		5.043134		24.958873		654.275541		98.533802		-0.147336		0.000000		0.177892		0.782339		20.507913		3.088504		0.774311		-0.152865		0.113398		0.381158		1.275809		1.884388		0.011776		0.012543		0.029332		-0.780286		0.087016		0.166407		-0.351493		1.268290		1.872243		-0.003909		-0.012507		-0.008602		
1.089955		14.873515		956.940704		241.760337		0.058509		0.000000		0.176051		0.308079		19.821219		5.007609		26.653762		652.090270		99.927072		-0.147561		0.000000		0.177898		0.861105		21.067020		3.228339		0.848911		-0.134987		0.071130		0.381164		1.275814		1.884413		0.014373		0.008497		0.030654		-0.793984		0.138605		0.167227		-0.351493		1.268302		1.872271		-0.003153		-0.013216		-0.010354		
1.092606		13.344575		967.374874		243.769741		0.058898		0.000000		0.175956		0.272116		19.725991		4.970772		27.918392		649.007219		101.118423		-0.147687		0.000000		0.177891		0.925446		21.513343		3.351889		0.903775		-0.108849		-0.037989		0.381179		1.275822		1.884437		0.017087		0.004895		0.032660		-0.802304		0.200548		0.154584		-0.351485		1.268318		1.872292		-0.001757		-0.014539		-0.012611		
1.095258		11.581586		976.416085		245.743248		0.059276		0.000000		0.175847		0.232534		19.603972		4.933905		28.710734		645.494671		102.189712		-0.147704		0.000000		0.177843		0.971988		21.852810		3.459577		0.937840		-0.086491		-0.183236		0.381198		1.275832		1.884461		0.019278		0.001972		0.034736		-0.799913		0.268857		0.123060		-0.351471		1.268337		1.872309		-0.000143		-0.015789		-0.015167		
1.097909		9.632018		983.781399		247.512160		0.059644		0.000000		0.175733		0.190543		19.461042		4.896255		29.047701		642.098115		103.192137		-0.147615		0.000000		0.177738		0.999663		22.097485		3.551310		0.952490		-0.081393		-0.328491		0.381218		1.275840		1.884482		0.020469		-0.000154		0.036313		-0.785865		0.334469		0.072626		-0.351456		1.268355		1.872326		0.001276		-0.016332		-0.017717		
1.100561		7.552604		989.249398		248.959059		0.059996		0.000000		0.175597		0.147324		19.296393		4.856219		28.935454		639.328925		104.062620		-0.147410		0.000000		0.177581		1.006525		22.239174		3.619838		0.945480		-0.100566		-0.445007		0.381234		1.275845		1.884500		0.020452		-0.001397		0.036974		-0.763099		0.384056		0.009683		-0.351441		1.268371		1.872348		0.002190		-0.015775		-0.019869		
1.103212		5.418238		992.715534		250.050282		0.060315		0.000000		0.175417		0.104314		19.111192		4.813825		28.344045		637.539959		104.604164		-0.147069		0.000000		0.177394		0.988825		22.241545		3.649274		0.908692		-0.140854		-0.519466		0.381243		1.275846		1.884515		0.019329		-0.001709		0.036499		-0.736830		0.402239		-0.052943		-0.351432		1.268385		1.872375		0.002437		-0.014093		-0.021204		
1.105864		3.313624		994.238767		250.823281		0.060584		0.000000		0.175171		0.063036		18.912496		4.771182		27.233696		636.825773		104.556313		-0.146568		0.000000		0.177207		0.943218		22.055868		3.621212		0.832699		-0.191589		-0.555360		0.381244		1.275842		1.884527		0.017467		-0.001146		0.034902		-0.712427		0.376039		-0.099582		-0.351430		1.268393		1.872406		0.002010		-0.011611		-0.021380		
1.108515		1.313375		994.018492		251.345064		0.060795		0.000000		0.174868		0.024720		18.709314		4.730791		25.598721		637.031129		103.704895		-0.145897		0.000000		0.177051		0.869828		21.645862		3.523819		0.715213		-0.240267		-0.567213		0.381238		1.275834		1.884540		0.015347		0.000115		0.032420		-0.694971		0.299546		-0.116800		-0.351435		1.268398		1.872443		0.001026		-0.008865		-0.020207		
1.111167		-0.528584		992.372178		251.682091		0.060956		0.000000		0.174540		-0.009858		18.511355		4.694786		23.509653		637.802861		101.984332		-0.145077		0.000000		0.176940		0.774509		21.011362		3.359727		0.568589		-0.276323		-0.573284		0.381227		1.275824		1.884556		0.013439		0.001821		0.029541		-0.690253		0.178986		-0.097817		-0.351448		1.268399		1.872483		-0.000283		-0.006450		-0.017742		
1.113818		-2.184339		989.704123		251.895180		0.061076		0.000000		0.174226		-0.040447		18.326983		4.664503		21.123464		638.676919		99.544572		-0.144166		0.000000		0.176871		0.668184		20.201964		3.148723		0.419675		-0.293051		-0.587788		0.381214		1.275814		1.884575		0.012095		0.003688		0.026971		-0.704051		0.035700		-0.046756		-0.351467		1.268397		1.872524		-0.001597		-0.004827		-0.014369		
1.116470		-3.638362		986.397305		252.034204		0.061162		0.000000		0.173952		-0.067000		18.164383		4.641178		18.619939		639.200913		96.675469		-0.143235		0.000000		0.176823		0.562065		19.294785		2.918234		0.299954		-0.286502		-0.615404		0.381200		1.275804		1.884599		0.011514		0.005417		0.025463		-0.740136		-0.099819		0.022846		-0.351486		1.268394		1.872564		-0.002543		-0.004199		-0.010680		
1.119121		-4.882174		982.784920		252.139180		0.061210		0.000000		0.173716		-0.089570		18.030766		4.625898		16.135733		638.993811		93.704770		-0.142339		0.000000		0.176766		0.463813		18.366648		2.693389		0.237090		-0.254663		-0.650043		0.381189		1.275797		1.884626		0.011721		0.006668		0.025596		-0.797386		-0.196596		0.092460		-0.351505		1.268390		1.872602		-0.002749		-0.004504		-0.007338		
1.121773		-5.927056		979.144382		252.237038		0.061212		0.000000		0.173499		-0.108530		17.929041		4.618694		13.705097		637.804366		90.878153		-0.141504		0.000000		0.176675		0.375284		17.463555		2.488340		0.247939		-0.198834		-0.677646		0.381179		1.275791		1.884659		0.012525		0.007105		0.027489		-0.868116		-0.234506		0.145833		-0.351521		1.268385		1.872639		-0.001972		-0.005450		-0.004897		
1.124424		-6.807700		975.696345		252.334392		0.061164		0.000000		0.173279		-0.124610		17.859429		4.618802		11.252199		635.498000		88.283579		-0.140719		0.000000		0.176541		0.293684		16.585768		2.304112		0.338050		-0.124127		-0.683650		0.381174		1.275788		1.884694		0.013548		0.006445		0.030721		-0.940457		-0.209287		0.174476		-0.351532		1.268384		1.872676		-0.000202		-0.006635		-0.003666		
1.127076		-7.577981		972.623041		252.422740		0.061070		0.000000		0.173043		-0.138845		17.820552		4.624929		8.638207		632.019442		85.864275		-0.139948		0.000000		0.176372		0.214569		15.697874		2.132677		0.502162		-0.038983		-0.660910		0.381173		1.275786		1.884731		0.014288		0.004464		0.034437		-1.001748		-0.131271		0.178448		-0.351539		1.268386		1.872712		0.002324		-0.007638		-0.003712		
1.129727		-8.290786		970.065609		252.486381		0.060936		0.000000		0.172791		-0.152217		17.810093		4.635569		5.741040		627.372285		83.492356		-0.139151		0.000000		0.176180		0.135066		14.755856		1.963769		0.723287		0.046150		-0.615587		0.381176		1.275785		1.884769		0.014273		0.001051		0.037618		-1.042732		-0.021235		0.163751		-0.351543		1.268392		1.872750		0.005176		-0.008150		-0.004864		
1.132379		-8.970218		968.114698		252.507920		0.060773		0.000000		0.172527		-0.165172		17.826194		4.649506		2.524752		621.594130		81.076355		-0.138302		0.000000		0.175982		0.055833		13.738210		1.791931		0.974199		0.120152		-0.565823		0.381182		1.275784		1.884806		0.013267		-0.003662		0.039452		-1.060694		0.096502		0.136906		-0.351548		1.268404		1.872787		0.007888		-0.008062		-0.006764		
1.135030		-9.600472		966.814660		252.460058		0.060592		0.000000		0.172261		-0.177435		17.868569		4.665941		-0.948583		614.734604		78.637033		-0.137404		0.000000		0.175783		-0.019526		12.660921		1.619594		1.220089		0.171958		-0.532885		0.381187		1.275785		1.884842		0.011391		-0.009173		0.039583		-1.059726		0.199867		0.100592		-0.351554		1.268418		1.872824		0.010087		-0.007469		-0.008945		
1.137682		-10.136486		966.165616		252.283465		0.060404		0.000000		0.172005		-0.188209		17.939251		4.684265		-4.552960		606.865812		76.321622		-0.136477		0.000000		0.175571		-0.086785		11.573609		1.455553		1.421279		0.192279		-0.530642		0.381191		1.275786		1.884874		0.009130		-0.014598		0.038203		-1.049054		0.272138		0.052498		-0.351565		1.268435		1.872858		0.011544		-0.006589		-0.010934		
1.140333		-10.529162		966.123877		251.875883		0.060223		0.000000		0.171771		-0.196596		18.039050		4.702918		-8.162861		598.109909		74.343050		-0.135549		0.000000		0.175328		-0.143768		10.537168		1.309742		1.541794		0.176817		-0.558885		0.381189		1.275787		1.884903		0.007154		-0.018895		0.035973		-1.038174		0.304353		-0.012721		-0.351581		1.268450		1.872888		0.012175		-0.005615		-0.012403		
1.142985		-10.740350		966.629040		251.096265		0.060063		0.000000		0.171572		-0.201840		18.165566		4.718776		-11.710660		588.620061		72.885961		-0.134640		0.000000		0.175036		-0.190920		9.596563		1.188296		1.558194		0.126888		-0.605980		0.381181		1.275787		1.884926		0.006056		-0.021195		0.033732		-1.031132		0.294798		-0.099691		-0.351601		1.268463		1.872911		0.011981		-0.004609		-0.013300		
1.145636		-10.744413		967.605748		249.791230		0.059940		0.000000		0.171423		-0.203370		18.314871		4.728054		-15.198803		578.577627		72.028530		-0.133758		0.000000		0.174694		-0.230224		8.765084		1.091181		1.467094		0.049131		-0.654197		0.381167		1.275787		1.884943		0.006170		-0.021030		0.032244		-1.024616		0.248604		-0.207524		-0.351623		1.268468		1.872926		0.011005		-0.003481		-0.013856		
1.148288		-10.532746		968.945340		247.851928		0.059864		0.000000		0.171331		-0.200929		18.484225		4.728180		-18.673896		568.178797		71.689186		-0.132897		0.000000		0.174322		-0.263571		8.020519		1.011968		1.290578		-0.045747		-0.685679		0.381148		1.275786		1.884954		0.007451		-0.018494		0.031947		-1.010096		0.176938		-0.326033		-0.351646		1.268466		1.872932		0.009363		-0.002087		-0.014439		
1.150939		-10.112419		970.510300		245.225721		0.059838		0.000000		0.171298		-0.194571		18.673407		4.718340		-22.172723		557.583986		71.672872		-0.132044		0.000000		0.173951		-0.291213		7.323577		0.941381		1.066639		-0.146136		-0.687227		0.381126		1.275783		1.884958		0.009541		-0.014149		0.032863		-0.978624		0.092378		-0.437574		-0.351666		1.268457		1.872931		0.007229		-0.000360		-0.015275		
1.153591		-9.514141		972.121906		241.910826		0.059858		0.000000		0.171318		-0.184769		18.879171		4.698044		-25.677326		546.900964		71.738416		-0.131189		0.000000		0.173615		-0.311644		6.638164		0.870737		0.838111		-0.240592		-0.652831		0.381106		1.275779		1.884958		0.011906		-0.008916		0.034621		-0.925116		0.006327		-0.521886		-0.351682		1.268442		1.872924		0.004852		0.001577		-0.016292		
